<svg xmlns="http://www.w3.org/2000/svg" viewBox="0 0 64 64" role="img" aria-labelledby="title">
  <title>CubeMaze icon</title>
  <defs>
    <linearGradient id="bg" x1="12" y1="8" x2="54" y2="58" gradientUnits="userSpaceOnUse">
      <stop stop-color="#13233f"/>
      <stop offset="1" stop-color="#0a0e1a"/>
    </linearGradient>
    <linearGradient id="slime" x1="22" y1="20" x2="45" y2="48" gradientUnits="userSpaceOnUse">
      <stop stop-color="#ff7d6e"/>
      <stop offset="1" stop-color="#ff3b30"/>
    </linearGradient>
  </defs>
  <rect width="64" height="64" rx="16" fill="url(#bg)"/>
  <path d="M18 22 32 14l14 8v16L32 46 18 38Z" fill="none" stroke="#5ac8fa" stroke-width="3" stroke-linejoin="round"/>
  <path d="M32 14v16m14-8-14 8-14-8m14 8v16" fill="none" stroke="#5ac8fa" stroke-width="2" opacity=".7"/>
  <path d="M23 39c0-7 4-13 10-13s10 6 10 13c0 6-4 10-10 10s-10-4-10-10Z" fill="url(#slime)"/>
  <circle cx="30" cy="37" r="2" fill="#180710"/>
  <circle cx="37" cy="37" r="2" fill="#180710"/>
</svg>
