<svg xmlns="http://www.w3.org/2000/svg" viewBox="0 0 900 680" role="img" aria-labelledby="title desc">
  <title id="title">CubeMaze gameplay illustration</title>
  <desc id="desc">A glowing three-dimensional cube maze made of aligned grid cells with a red slime player and a green exit door.</desc>
  <defs>
    <radialGradient id="halo" cx="50%" cy="42%" r="58%">
      <stop offset="0" stop-color="#173e73"/>
      <stop offset=".6" stop-color="#09182d"/>
      <stop offset="1" stop-color="#030711"/>
    </radialGradient>
    <linearGradient id="cell" x1="250" y1="80" x2="680" y2="550" gradientUnits="userSpaceOnUse">
      <stop stop-color="#153a63"/>
      <stop offset="1" stop-color="#071428"/>
    </linearGradient>
    <linearGradient id="slime" x1="363" y1="355" x2="450" y2="476" gradientUnits="userSpaceOnUse">
      <stop stop-color="#ff8a78"/>
      <stop offset="1" stop-color="#ef3154"/>
    </linearGradient>
    <filter id="cyanGlow" x="-30%" y="-30%" width="160%" height="160%">
      <feGaussianBlur stdDeviation="6" result="blur"/>
      <feMerge><feMergeNode in="blur"/><feMergeNode in="SourceGraphic"/></feMerge>
    </filter>
    <filter id="greenGlow" x="-60%" y="-60%" width="220%" height="220%">
      <feGaussianBlur stdDeviation="7" result="blur"/>
      <feMerge><feMergeNode in="blur"/><feMergeNode in="SourceGraphic"/></feMerge>
    </filter>
  </defs>
  <rect width="900" height="680" rx="42" fill="url(#halo)"/>
  <g opacity=".18">
    <circle cx="180" cy="120" r="2" fill="#89e6ff"/>
    <circle cx="730" cy="120" r="3" fill="#89e6ff"/>
    <circle cx="760" cy="505" r="2" fill="#89e6ff"/>
    <circle cx="120" cy="500" r="2" fill="#89e6ff"/>
    <circle cx="690" cy="590" r="1.8" fill="#89e6ff"/>
  </g>
  <g transform="translate(450 325)" filter="url(#cyanGlow)">
    <g fill="none" stroke-linecap="round" stroke-linejoin="round">
      <path d="M-170-126 48-240 222-108 24 20Z" fill="url(#cell)" stroke="#60ddff" stroke-width="5"/>
      <path d="M-170-126 24 20 18 254-178 103Z" fill="#071d37" stroke="#60ddff" stroke-width="5"/>
      <path d="M24 20 222-108 220 123 18 254Z" fill="#0a2442" stroke="#60ddff" stroke-width="5"/>
      <path d="M-98-164 96-36m-22-166 184 130m-354 10 192 148m70-202 2 232m80-178-6 226m-210-84 206-126m-208 191 204-132m-143-91 190 146m-268-70 196 150" stroke="#4fbfe6" stroke-width="2.6" opacity=".78"/>
      <path d="M-36-56 96-128m-42 58 112 76M-72 44 54 122m-128-10 130-68" stroke="#ffcf5a" stroke-width="5" opacity=".82"/>
    </g>
  </g>
  <g transform="translate(402 425)">
    <ellipse cx="0" cy="44" rx="58" ry="16" fill="#000812" opacity=".36"/>
    <path d="M-48 22c0-36 22-67 52-67s52 31 52 67c0 32-22 55-52 55s-52-23-52-55Z" fill="url(#slime)"/>
    <path d="M-31-6c16-19 45-19 63 0" fill="none" stroke="#ffb2a6" stroke-width="7" stroke-linecap="round" opacity=".48"/>
    <circle cx="-13" cy="21" r="8" fill="#17050d"/>
    <circle cx="20" cy="21" r="8" fill="#17050d"/>
    <path d="M-15 43c14 8 27 8 40 0" fill="none" stroke="#17050d" stroke-width="6" stroke-linecap="round"/>
  </g>
  <g transform="translate(590 255)" filter="url(#greenGlow)">
    <path d="M0-42 42-18 42 36 0 60-42 36-42-18Z" fill="#30f28b" opacity=".22"/>
    <path d="M-30-18 0-36 30-18v54L0 54-30 36Z" fill="#0cd775"/>
    <path d="M0-36v90M-30-18 0 0l30-18" fill="none" stroke="#dbffe9" stroke-width="4" opacity=".65"/>
    <path d="M58 6h70m-22-22 22 22-22 22" fill="none" stroke="#36ff98" stroke-width="8" stroke-linecap="round" stroke-linejoin="round"/>
  </g>
  <g transform="translate(120 84)">
    <rect width="214" height="50" rx="25" fill="#071426" stroke="#1b6d92"/>
    <circle cx="31" cy="25" r="10" fill="#36ff98"/>
    <text x="52" y="31" fill="#d8f6ff" font-family="Inter, ui-sans-serif, system-ui" font-size="17" font-weight="700">120 handcrafted levels</text>
  </g>
</svg>
