<svg xmlns="http://www.w3.org/2000/svg" viewBox="0 0 220 64" role="img" aria-labelledby="title desc">
  <title id="title">CubeMaze</title>
  <desc id="desc">CubeMaze logo with a glowing cube and red slime</desc>
  <defs>
    <linearGradient id="slime" x1="21" y1="21" x2="49" y2="52" gradientUnits="userSpaceOnUse">
      <stop stop-color="#ff8b78"/>
      <stop offset="1" stop-color="#f13759"/>
    </linearGradient>
    <filter id="glow" x="-40%" y="-40%" width="180%" height="180%">
      <feGaussianBlur stdDeviation="2.2" result="blur"/>
      <feMerge>
        <feMergeNode in="blur"/>
        <feMergeNode in="SourceGraphic"/>
      </feMerge>
    </filter>
  </defs>
  <g filter="url(#glow)">
    <path d="M12 20 32 9l20 11v23L32 55 12 43Z" fill="none" stroke="#65dcff" stroke-width="3" stroke-linejoin="round"/>
    <path d="M32 9v23m20-12-20 12-20-12m20 12v23" fill="none" stroke="#65dcff" stroke-width="2" opacity=".7"/>
  </g>
  <path d="M21 42c0-8 5-15 12-15s12 7 12 15c0 7-5 12-12 12s-12-5-12-12Z" fill="url(#slime)"/>
  <circle cx="30" cy="40" r="2.2" fill="#180710"/>
  <circle cx="38" cy="40" r="2.2" fill="#180710"/>
  <path d="M28 46c3 2 7 2 10 0" fill="none" stroke="#180710" stroke-width="2" stroke-linecap="round"/>
  <text x="70" y="39" fill="#f7fbff" font-family="Inter, ui-sans-serif, system-ui, -apple-system, BlinkMacSystemFont, 'Segoe UI', sans-serif" font-size="30" font-weight="800" letter-spacing=".4">CubeMaze</text>
  <text x="72" y="55" fill="#8da6c7" font-family="Inter, ui-sans-serif, system-ui, -apple-system, BlinkMacSystemFont, 'Segoe UI', sans-serif" font-size="10" font-weight="700" letter-spacing="2.4">FIND YOUR THIRD DIRECTION</text>
</svg>
