<svg xmlns="http://www.w3.org/2000/svg" viewBox="0 0 1200 630" role="img" aria-labelledby="title">
  <title id="title">CubeMaze social preview</title>
  <defs>
    <linearGradient id="bg" x1="0" y1="0" x2="1" y2="1">
      <stop stop-color="#102d55"/>
      <stop offset=".48" stop-color="#071326"/>
      <stop offset="1" stop-color="#050914"/>
    </linearGradient>
    <filter id="glow" x="-30%" y="-30%" width="160%" height="160%">
      <feGaussianBlur stdDeviation="8" result="blur"/>
      <feMerge><feMergeNode in="blur"/><feMergeNode in="SourceGraphic"/></feMerge>
    </filter>
  </defs>
  <rect width="1200" height="630" fill="url(#bg)"/>
  <g transform="translate(820 314) scale(1.24)" filter="url(#glow)" fill="none" stroke="#63dcff" stroke-linejoin="round">
    <path d="M-160-120 50-232 222-104 22 18Z" stroke-width="7"/>
    <path d="M-160-120 22 18 16 248-170 100Z" stroke-width="7"/>
    <path d="M22 18 222-104 220 120 16 248Z" stroke-width="7"/>
    <path d="M-90-158 96-36m-18-162 182 130m-342 4 190 146m70-202v230m78-174-6 224m-205-84 204-126m-206 190 202-132" stroke-width="3" opacity=".7"/>
  </g>
  <g transform="translate(120 130)">
    <text x="0" y="72" fill="#f7fbff" font-family="Inter, ui-sans-serif, system-ui" font-size="84" font-weight="900">CubeMaze</text>
    <text x="0" y="136" fill="#7fe5ff" font-family="Inter, ui-sans-serif, system-ui" font-size="35" font-weight="800">Find your third direction.</text>
    <text x="0" y="224" fill="#c9d7eb" font-family="Inter, ui-sans-serif, system-ui" font-size="30">A minimalist iPhone and iPad puzzle game</text>
    <text x="0" y="267" fill="#c9d7eb" font-family="Inter, ui-sans-serif, system-ui" font-size="30">about solving 3D mazes one 2D slice at a time.</text>
    <rect y="340" width="310" height="74" rx="37" fill="#f23b55"/>
    <text x="38" y="387" fill="#fff" font-family="Inter, ui-sans-serif, system-ui" font-size="25" font-weight="900">120 handcrafted levels</text>
  </g>
</svg>
